<svg width="683" height="545" version="1.1" xmlns="http://www.w3.org/2000/svg" desc="Created with imagetracer.js version 1.2.6" ><path fill="rgb(230,225,225)" stroke="rgb(230,225,225)" stroke-width="1" opacity="1" d="M 397.5 117 L 383.5 132 L 397.5 117 Z " /><path fill="rgb(230,225,225)" stroke="rgb(230,225,225)" stroke-width="1" opacity="1" d="M 296.5 133 L 357 133.5 L 296.5 134 L 296.5 133 Z " /><path fill="rgb(230,225,225)" stroke="rgb(230,225,225)" stroke-width="1" opacity="1" d="M 262.5 142 L 236.5 169 L 262.5 142 Z " /><path fill="rgb(230,225,225)" stroke="rgb(230,225,225)" stroke-width="1" opacity="1" d="M 410.5 145 L 376.5 180 L 410.5 145 Z " /><path fill="rgb(230,225,225)" stroke="rgb(230,225,225)" stroke-width="1" opacity="1" d="M 331.5 159 L 303.5 188 L 331.5 159 Z " /><path fill="rgb(230,225,225)" stroke="rgb(230,225,225)" stroke-width="1" opacity="1" d="M 469.5 161 L 436.5 195 L 469.5 161 Z " /><path fill="rgb(230,225,225)" stroke="rgb(230,225,225)" stroke-width="1" opacity="1" d="M 267.5 162 L 240.5 190 L 267.5 162 Z " /><path fill="rgb(230,225,225)" stroke="rgb(230,225,225)" stroke-width="1" opacity="1" d="M 331.5 184 L 304.5 212 L 331.5 184 Z " /><path fill="rgb(230,225,225)" stroke="rgb(230,225,225)" stroke-width="1" opacity="1" d="M 184.5 221 L 170 236.5 L 183.5 251 L 169 236.5 L 184.5 221 Z " /><path fill="rgb(230,225,225)" stroke="rgb(230,225,225)" stroke-width="1" opacity="1" d="M 322.5 234 L 321.5 236 L 322.5 234 Z " /><path fill="rgb(230,225,225)" stroke="rgb(230,225,225)" stroke-width="1" opacity="1" d="M 321.5 237 L 323.5 240 L 321.5 237 Z " /><path fill="rgb(230,225,225)" stroke="rgb(230,225,225)" stroke-width="1" opacity="1" d="M 382.5 237 L 386.5 242 L 382.5 237 Z " /><path fill="rgb(230,225,225)" stroke="rgb(230,225,225)" stroke-width="1" opacity="1" d="M 301.5 258 L 324.5 282 L 301.5 258 Z " /><path fill="rgb(230,225,225)" stroke="rgb(230,225,225)" stroke-width="1" opacity="1" d="M 232.5 275 L 255.5 299 L 232.5 275 Z " /><path fill="rgb(230,225,225)" stroke="rgb(230,225,225)" stroke-width="1" opacity="1" d="M 379.5 282 L 402.5 306 L 379.5 282 Z " /><path fill="rgb(230,225,225)" stroke="rgb(230,225,225)" stroke-width="1" opacity="1" d="M 302.5 284 L 328.5 311 L 302.5 284 Z " /><path fill="rgb(230,225,225)" stroke="rgb(230,225,225)" stroke-width="1" opacity="1" d="M 442.5 284 L 465.5 308 L 442.5 284 Z " /><path fill="rgb(230,225,225)" stroke="rgb(230,225,225)" stroke-width="1" opacity="1" d="M 373.5 290 L 395.5 313 L 373.5 290 Z " /><path fill="rgb(230,225,225)" stroke="rgb(230,225,225)" stroke-width="1" opacity="1" d="M 436.5 292 L 458.5 315 L 436.5 292 Z " /><path fill="rgb(230,225,225)" stroke="rgb(230,225,225)" stroke-width="1" opacity="1" d="M 236.5 304 L 262.5 331 L 236.5 304 Z " /><path fill="rgb(230,225,225)" stroke="rgb(230,225,225)" stroke-width="1" opacity="1" d="M 368.5 326 L 391.5 350 L 368.5 326 Z " /><path fill="rgb(230,225,225)" stroke="rgb(230,225,225)" stroke-width="1" opacity="1" d="M 300.5 344 L 312.5 357 L 288 356.5 L 311 355.5 L 300.5 344 Z " /><path fill="rgb(230,225,225)" stroke="rgb(230,225,225)" stroke-width="1" opacity="1" d="M 451.5 355 L 452 357 L 439 356.5 L 450.5 356 L 451.5 355 Z " /><path fill="rgb(230,225,225)" stroke="rgb(230,225,225)" stroke-width="1" opacity="1" d="M 374.5 356 L 398 356.5 L 374.5 357 L 374.5 356 Z " /><path fill="rgb(230,225,225)" stroke="rgb(230,225,225)" stroke-width="1" opacity="1" d="M 500.5 356 L 513 356.5 L 500.5 357 L 500.5 356 Z " /><path fill="rgb(230,225,225)" stroke="rgb(230,225,225)" stroke-width="1" opacity="1" d="M 348.5 388 L 349.5 390 L 348.5 388 Z " /><path fill="rgb(230,225,225)" stroke="rgb(230,225,225)" stroke-width="1" opacity="1" d="M 433.5 388 L 431.5 391 L 433.5 388 Z " /><path fill="rgb(230,225,225)" stroke="rgb(230,225,225)" stroke-width="1" opacity="1" d="M 247.5 389 L 250 389.5 L 247.5 390 L 247.5 389 Z " /><path fill="rgb(230,225,225)" stroke="rgb(230,225,225)" stroke-width="1" opacity="1" d="M 460.5 389 L 463 389.5 L 460.5 390 L 460.5 389 Z " /><path fill="rgb(230,225,225)" stroke="rgb(230,225,225)" stroke-width="1" opacity="1" d="M 491.5 389 L 494 389.5 L 491.5 390 L 491.5 389 Z " /><path fill="rgb(230,225,225)" stroke="rgb(230,225,225)" stroke-width="1" opacity="1" d="M 236.5 390 L 237.5 392 L 236.5 390 Z " /><path fill="rgb(230,225,225)" stroke="rgb(230,225,225)" stroke-width="1" opacity="1" d="M 283.5 390 L 280.5 394 L 283.5 390 Z " /><path fill="rgb(230,225,225)" stroke="rgb(230,225,225)" stroke-width="1" opacity="1" d="M 290.5 391 L 288.5 394 L 290.5 391 Z " /><path fill="rgb(230,225,225)" stroke="rgb(230,225,225)" stroke-width="1" opacity="1" d="M 437.5 391 L 436.5 393 L 437.5 391 Z " /><path fill="rgb(230,225,225)" stroke="rgb(230,225,225)" stroke-width="1" opacity="1" d="M 342.5 392 L 343.5 394 L 342.5 392 Z " /><path fill="rgb(230,225,225)" stroke="rgb(230,225,225)" stroke-width="1" opacity="1" d="M 313.5 394 L 314.5 396 L 313.5 394 Z " /><path fill="rgb(230,225,225)" stroke="rgb(230,225,225)" stroke-width="1" opacity="1" d="M 211.5 395 L 208.5 399 L 211.5 395 Z " /><path fill="rgb(230,225,225)" stroke="rgb(230,225,225)" stroke-width="1" opacity="1" d="M 390.5 395 L 391 396.5 L 388.5 398 L 388.5 397 Q 391 397.7 390.5 395 Z " /><path fill="rgb(230,225,225)" stroke="rgb(230,225,225)" stroke-width="1" opacity="1" d="M 423.5 396 L 426 397.5 L 424.5 398 L 423.5 396 Z " /><path fill="rgb(230,225,225)" stroke="rgb(230,225,225)" stroke-width="1" opacity="1" d="M 436.5 397 L 438.5 400 L 436.5 397 Z " /><path fill="rgb(230,225,225)" stroke="rgb(230,225,225)" stroke-width="1" opacity="1" d="M 344.5 409 L 345.5 411 L 344.5 409 Z " /><path fill="rgb(230,225,225)" stroke="rgb(230,225,225)" stroke-width="1" opacity="1" d="M 453.5 409 L 454.5 411 L 453.5 409 Z " /><path fill="rgb(230,225,225)" stroke="rgb(230,225,225)" stroke-width="1" opacity="1" d="M 200.5 410 L 204.5 415 L 200.5 410 Z " /><path fill="rgb(230,225,225)" stroke="rgb(230,225,225)" stroke-width="1" opacity="1" d="M 338.5 413 L 339.5 415 L 338.5 413 Z " /><path fill="rgb(230,225,225)" stroke="rgb(230,225,225)" stroke-width="1" opacity="1" d="M 348.5 414 L 349.5 416 L 348.5 414 Z " /><path fill="rgb(230,225,225)" stroke="rgb(230,225,225)" stroke-width="1" opacity="1" d="M 447.5 415 L 448.5 417 L 447.5 415 Z " /><path fill="rgb(230,225,225)" stroke="rgb(230,225,225)" stroke-width="1" opacity="1" d="M 429.5 417 L 430 429.5 L 429 429.5 L 429.5 417 Z " /><path fill="rgb(230,225,225)" stroke="rgb(230,225,225)" stroke-width="1" opacity="1" d="M 457.5 417 L 458 419.5 L 457 419.5 L 457.5 417 Z " /><path fill="rgb(230,225,225)" stroke="rgb(230,225,225)" stroke-width="1" opacity="1" d="M 219.5 418 L 222.5 422 L 219.5 418 Z " /><path fill="rgb(230,225,225)" stroke="rgb(230,225,225)" stroke-width="1" opacity="1" d="M 342.5 418 L 343.5 420 L 342.5 418 Z " /><path fill="rgb(230,225,225)" stroke="rgb(230,225,225)" stroke-width="1" opacity="1" d="M 352.5 419 L 353.5 421 L 352.5 419 Z " /><path fill="rgb(230,225,225)" stroke="rgb(230,225,225)" stroke-width="1" opacity="1" d="M 279.5 421 L 280.5 423 L 279.5 421 Z " /><path fill="rgb(230,225,225)" stroke="rgb(230,225,225)" stroke-width="1" opacity="1" d="M 287.5 421 L 290.5 425 L 287.5 421 Z " /><path fill="rgb(230,225,225)" stroke="rgb(230,225,225)" stroke-width="1" opacity="1" d="M 434.5 422 L 436.5 425 L 434.5 422 Z " /><path fill="rgb(230,225,225)" stroke="rgb(230,225,225)" stroke-width="1" opacity="1" d="M 346.5 423 L 347.5 425 L 346.5 423 Z " /><path fill="rgb(230,225,225)" stroke="rgb(230,225,225)" stroke-width="1" opacity="1" d="M 449.5 423 L 447.5 426 L 449.5 423 Z " /><path fill="rgb(230,225,225)" stroke="rgb(230,225,225)" stroke-width="1" opacity="1" d="M 283.5 425 L 284.5 427 L 283.5 425 Z " /><path fill="rgb(255,255,255)" stroke="rgb(255,255,255)" stroke-width="1" opacity="1" d="M 0 0 L 683 0 L 683 545 L 0 545 L 0 0 Z M 288 117 L 169 237 L 289 357 L 313 357 L 194 237 L 296 134 L 356 135 L 255 237 L 375 357 L 398 357 L 280 237 L 398 118 L 288 117 Z M 439 117 L 320 237 L 373 291 L 440 357 L 452 357 L 452 356 L 335 238 L 382 237 L 436 293 L 501 357 L 513 357 L 513 356 L 395 237 L 513 118 L 439 117 Z M 293 386 L 284 390 Q 278 395 275 404 L 275 413 L 279 422 Q 283 428 292 430 Q 303 432 309 427 Q 315 423 318 415 Q 320 402 315 396 Q 310 385 293 386 Z M 438 386 L 434 388 L 429 395 L 430 403 Q 435 410 445 413 L 450 419 L 450 423 L 447 426 L 443 427 L 439 426 Q 433 423 432 415 L 429 416 L 429 430 Q 432 431 434 428 L 440 430 Q 448 432 453 428 Q 457 425 458 420 Q 458 413 455 411 L 436 397 Q 435 391 440 390 L 448 391 Q 453 394 452 401 L 455 401 L 455 386 Q 451 385 452 388 L 446 386 L 438 386 Z M 186 387 L 186 389 L 192 392 L 192 425 L 190 427 Q 185 426 186 429 L 206 429 L 206 427 L 201 426 L 200 424 L 201 411 L 206 415 L 214 425 Q 216 426 214 427 Q 210 426 211 429 L 234 429 L 234 427 Q 228 428 226 424 L 207 406 Q 214 395 226 389 Q 229 390 228 387 L 212 387 L 211 389 L 215 391 L 208 400 L 201 406 L 200 392 L 206 389 L 206 387 L 186 387 Z M 232 387 L 232 389 L 236 390 L 251 412 L 251 424 L 250 426 L 248 427 Q 244 426 245 429 L 265 429 L 265 427 Q 260 428 259 425 L 259 411 L 271 393 L 277 390 L 278 387 L 264 387 L 263 389 L 267 391 L 258 405 Q 259 407 256 406 L 247 390 L 252 389 L 252 387 L 232 387 Z M 319 387 L 319 389 L 324 390 L 325 392 L 325 425 L 322 427 Q 318 426 319 429 L 339 429 L 339 427 L 333 425 L 333 411 L 336 410 L 350 429 L 363 429 L 363 427 L 358 425 L 345 410 L 349 408 L 354 402 L 353 393 L 346 387 L 319 387 Z M 365 387 L 365 389 L 371 390 L 372 393 L 372 424 L 371 426 L 369 427 Q 364 426 365 429 L 386 429 L 386 427 L 382 426 L 380 426 L 380 392 L 386 389 L 386 387 L 365 387 Z M 388 387 L 388 398 L 390 398 Q 392 397 391 394 L 395 391 L 403 391 L 403 392 L 403 425 Q 401 429 400 426 L 397 427 L 398 429 L 417 429 Q 418 426 414 427 L 411 425 L 411 391 Q 419 390 422 392 L 423 397 L 426 398 L 426 388 L 426 387 L 388 387 Z M 459 387 L 459 389 Q 460 391 464 390 L 465 392 L 465 419 L 467 424 Q 470 428 477 430 L 490 430 L 494 428 L 500 420 L 500 394 L 501 390 L 506 389 Q 508 390 507 387 L 491 387 L 490 389 L 496 392 L 496 419 L 494 423 L 488 426 Q 481 427 478 425 L 473 418 L 473 393 L 474 390 L 479 389 L 479 387 L 459 387 Z " /><path fill="rgb(255,255,255)" stroke="rgb(255,255,255)" stroke-width="1" opacity="1" d="M 293.5 390 Q 303.6 388.4 306 394.5 Q 310.9 401 309 414.5 Q 307.5 421.4 302.5 425 L 296.5 427 Q 290 425.5 287 420.5 L 284 411.5 L 284 404.5 L 287 395.5 L 291.5 391 L 293.5 390 Z " /><path fill="rgb(255,255,255)" stroke="rgb(255,255,255)" stroke-width="1" opacity="1" d="M 336.5 390 L 340.5 391 L 345 395.5 Q 346.5 403.5 341.5 405 L 333 407 L 333 391.5 L 335.5 391 L 336.5 390 Z " /><path fill="rgb(159,144,144)" stroke="rgb(159,144,144)" stroke-width="1" opacity="1" d="M 287.5 117 L 263.5 142 L 287.5 117 Z " /><path fill="rgb(159,144,144)" stroke="rgb(159,144,144)" stroke-width="1" opacity="1" d="M 438.5 117 L 411.5 145 L 438.5 117 Z " /><path fill="rgb(159,144,144)" stroke="rgb(159,144,144)" stroke-width="1" opacity="1" d="M 512.5 117 L 486.5 144 L 512.5 117 Z " /><path fill="rgb(159,144,144)" stroke="rgb(159,144,144)" stroke-width="1" opacity="1" d="M 382.5 132 L 331.5 184 L 382.5 132 Z " /><path fill="rgb(159,144,144)" stroke="rgb(159,144,144)" stroke-width="1" opacity="1" d="M 295.5 133 L 267.5 162 L 295.5 133 Z " /><path fill="rgb(159,144,144)" stroke="rgb(159,144,144)" stroke-width="1" opacity="1" d="M 357.5 133 L 332.5 159 L 357.5 133 Z " /><path fill="rgb(159,144,144)" stroke="rgb(159,144,144)" stroke-width="1" opacity="1" d="M 236.5 169 L 185.5 221 L 236.5 169 Z " /><path fill="rgb(159,144,144)" stroke="rgb(159,144,144)" stroke-width="1" opacity="1" d="M 304.5 187 L 256 236.5 L 302.5 284 L 255 236.5 L 304.5 187 Z " /><path fill="rgb(159,144,144)" stroke="rgb(159,144,144)" stroke-width="1" opacity="1" d="M 239.5 190 L 194 236.5 L 231.5 275 L 193 236.5 L 239.5 190 Z " /><path fill="rgb(159,144,144)" stroke="rgb(159,144,144)" stroke-width="1" opacity="1" d="M 435.5 195 L 398.5 233 L 435.5 195 Z " /><path fill="rgb(159,144,144)" stroke="rgb(159,144,144)" stroke-width="1" opacity="1" d="M 360.5 196 L 323.5 234 L 360.5 196 Z " /><path fill="rgb(159,144,144)" stroke="rgb(159,144,144)" stroke-width="1" opacity="1" d="M 303.5 212 L 280 236.5 L 300.5 258 L 279 236.5 L 303.5 212 Z " /><path fill="rgb(159,144,144)" stroke="rgb(159,144,144)" stroke-width="1" opacity="1" d="M 320.5 236 L 395 236.5 L 320.5 237 L 320.5 236 Z " /><path fill="rgb(159,144,144)" stroke="rgb(159,144,144)" stroke-width="1" opacity="1" d="M 336.5 239 L 378.5 282 L 336.5 239 Z " /><path fill="rgb(159,144,144)" stroke="rgb(159,144,144)" stroke-width="1" opacity="1" d="M 397.5 239 L 441.5 284 L 397.5 239 Z " /><path fill="rgb(159,144,144)" stroke="rgb(159,144,144)" stroke-width="1" opacity="1" d="M 324.5 240 L 368.5 285 L 324.5 240 Z " /><path fill="rgb(159,144,144)" stroke="rgb(159,144,144)" stroke-width="1" opacity="1" d="M 387.5 242 L 431.5 287 L 387.5 242 Z " /><path fill="rgb(159,144,144)" stroke="rgb(159,144,144)" stroke-width="1" opacity="1" d="M 184.5 251 L 235.5 303 L 184.5 251 Z " /><path fill="rgb(159,144,144)" stroke="rgb(159,144,144)" stroke-width="1" opacity="1" d="M 323.5 281 L 367.5 326 L 323.5 281 Z " /><path fill="rgb(159,144,144)" stroke="rgb(159,144,144)" stroke-width="1" opacity="1" d="M 254.5 298 L 299.5 344 L 254.5 298 Z " /><path fill="rgb(159,144,144)" stroke="rgb(159,144,144)" stroke-width="1" opacity="1" d="M 329.5 311 L 373.5 356 L 329.5 311 Z " /><path fill="rgb(159,144,144)" stroke="rgb(159,144,144)" stroke-width="1" opacity="1" d="M 407.5 311 L 450.5 355 L 407.5 311 Z " /><path fill="rgb(159,144,144)" stroke="rgb(159,144,144)" stroke-width="1" opacity="1" d="M 469.5 312 L 512.5 356 L 469.5 312 Z " /><path fill="rgb(159,144,144)" stroke="rgb(159,144,144)" stroke-width="1" opacity="1" d="M 396.5 313 L 436.5 354 L 396.5 313 Z " /><path fill="rgb(159,144,144)" stroke="rgb(159,144,144)" stroke-width="1" opacity="1" d="M 459.5 315 L 497.5 354 L 459.5 315 Z " /><path fill="rgb(159,144,144)" stroke="rgb(159,144,144)" stroke-width="1" opacity="1" d="M 263.5 331 L 287.5 356 L 263.5 331 Z " /><path fill="rgb(159,144,144)" stroke="rgb(159,144,144)" stroke-width="1" opacity="1" d="M 390.5 349 L 396.5 356 L 390.5 349 Z " /><path fill="rgb(159,144,144)" stroke="rgb(159,144,144)" stroke-width="1" opacity="1" d="M 438.5 386 L 441 386.5 L 438.5 387 L 438.5 386 Z " /><path fill="rgb(159,144,144)" stroke="rgb(159,144,144)" stroke-width="1" opacity="1" d="M 442.5 386 L 445 386.5 L 442.5 387 L 442.5 386 Z " /><path fill="rgb(159,144,144)" stroke="rgb(159,144,144)" stroke-width="1" opacity="1" d="M 388.5 387 L 389 393.5 L 388 393.5 L 388.5 387 Z " /><path fill="rgb(159,144,144)" stroke="rgb(159,144,144)" stroke-width="1" opacity="1" d="M 425.5 387 L 426 389.5 L 425 389.5 L 425.5 387 Z " /><path fill="rgb(159,144,144)" stroke="rgb(159,144,144)" stroke-width="1" opacity="1" d="M 452.5 387 L 451.5 389 L 450 388.5 L 452.5 387 Z " /><path fill="rgb(159,144,144)" stroke="rgb(159,144,144)" stroke-width="1" opacity="1" d="M 201.5 389 L 203 389.5 L 200.5 391 L 201.5 389 Z " /><path fill="rgb(159,144,144)" stroke="rgb(159,144,144)" stroke-width="1" opacity="1" d="M 223.5 389 L 225 389.5 L 222.5 391 L 223.5 389 Z " /><path fill="rgb(159,144,144)" stroke="rgb(159,144,144)" stroke-width="1" opacity="1" d="M 293.5 389 L 296 389.5 L 293.5 390 L 293.5 389 Z " /><path fill="rgb(159,144,144)" stroke="rgb(159,144,144)" stroke-width="1" opacity="1" d="M 297.5 389 L 300 389.5 L 297.5 390 L 297.5 389 Z " /><path fill="rgb(159,144,144)" stroke="rgb(159,144,144)" stroke-width="1" opacity="1" d="M 323.5 389 L 324.5 391 L 323.5 389 Z " /><path fill="rgb(159,144,144)" stroke="rgb(159,144,144)" stroke-width="1" opacity="1" d="M 463.5 389 L 464.5 391 L 463.5 389 Z " /><path fill="rgb(159,144,144)" stroke="rgb(159,144,144)" stroke-width="1" opacity="1" d="M 474.5 389 L 476 389.5 L 473.5 391 L 474.5 389 Z " /><path fill="rgb(159,144,144)" stroke="rgb(159,144,144)" stroke-width="1" opacity="1" d="M 272.5 390 L 270.5 393 L 272.5 390 Z " /><path fill="rgb(159,144,144)" stroke="rgb(159,144,144)" stroke-width="1" opacity="1" d="M 309.5 390 L 312.5 394 L 309.5 390 Z " /><path fill="rgb(159,144,144)" stroke="rgb(159,144,144)" stroke-width="1" opacity="1" d="M 333.5 390 L 335 390.5 L 333 391 L 332.5 407 L 332 391.5 L 333.5 390 Z " /><path fill="rgb(159,144,144)" stroke="rgb(159,144,144)" stroke-width="1" opacity="1" d="M 350.5 390 L 351.5 392 L 350.5 390 Z " /><path fill="rgb(159,144,144)" stroke="rgb(159,144,144)" stroke-width="1" opacity="1" d="M 395.5 390 Q 402.2 388.2 404 391.5 L 403.5 424 L 403 391 L 395.5 391 L 395.5 390 Z " /><path fill="rgb(159,144,144)" stroke="rgb(159,144,144)" stroke-width="1" opacity="1" d="M 411.5 390 L 419 390.5 L 411 391 L 410.5 424 L 410 391.5 L 411.5 390 Z " /><path fill="rgb(159,144,144)" stroke="rgb(159,144,144)" stroke-width="1" opacity="1" d="M 220.5 391 L 213.5 399 L 220.5 391 Z " /><path fill="rgb(159,144,144)" stroke="rgb(159,144,144)" stroke-width="1" opacity="1" d="M 303.5 391 L 305.5 394 L 303.5 391 Z " /><path fill="rgb(159,144,144)" stroke="rgb(159,144,144)" stroke-width="1" opacity="1" d="M 379.5 391 L 380 424.5 L 379 424.5 L 379.5 391 Z " /><path fill="rgb(159,144,144)" stroke="rgb(159,144,144)" stroke-width="1" opacity="1" d="M 448.5 391 L 449.5 393 L 448.5 391 Z " /><path fill="rgb(159,144,144)" stroke="rgb(159,144,144)" stroke-width="1" opacity="1" d="M 192.5 392 L 193 423.5 L 192 423.5 L 192.5 392 Z " /><path fill="rgb(159,144,144)" stroke="rgb(159,144,144)" stroke-width="1" opacity="1" d="M 238.5 392 L 239.5 394 L 238.5 392 Z " /><path fill="rgb(159,144,144)" stroke="rgb(159,144,144)" stroke-width="1" opacity="1" d="M 247.5 392 L 249 394.5 L 247 393.5 L 247.5 392 Z " /><path fill="rgb(159,144,144)" stroke="rgb(159,144,144)" stroke-width="1" opacity="1" d="M 465.5 392 L 466 417.5 L 465 417.5 L 465.5 392 Z " /><path fill="rgb(159,144,144)" stroke="rgb(159,144,144)" stroke-width="1" opacity="1" d="M 496.5 392 L 497 417.5 L 496 417.5 L 496.5 392 Z " /><path fill="rgb(159,144,144)" stroke="rgb(159,144,144)" stroke-width="1" opacity="1" d="M 213.5 393 L 212.5 395 L 213.5 393 Z " /><path fill="rgb(159,144,144)" stroke="rgb(159,144,144)" stroke-width="1" opacity="1" d="M 325.5 393 L 326 423.5 L 325 423.5 L 325.5 393 Z " /><path fill="rgb(159,144,144)" stroke="rgb(159,144,144)" stroke-width="1" opacity="1" d="M 265.5 394 L 264.5 396 L 265.5 394 Z " /><path fill="rgb(159,144,144)" stroke="rgb(159,144,144)" stroke-width="1" opacity="1" d="M 269.5 394 L 268.5 396 L 269.5 394 Z " /><path fill="rgb(159,144,144)" stroke="rgb(159,144,144)" stroke-width="1" opacity="1" d="M 287.5 394 L 286.5 396 L 287.5 394 Z " /><path fill="rgb(159,144,144)" stroke="rgb(159,144,144)" stroke-width="1" opacity="1" d="M 240.5 395 L 241.5 397 L 240.5 395 Z " /><path fill="rgb(159,144,144)" stroke="rgb(159,144,144)" stroke-width="1" opacity="1" d="M 429.5 395 L 430 398.5 L 429 398.5 L 429.5 395 Z " /><path fill="rgb(159,144,144)" stroke="rgb(159,144,144)" stroke-width="1" opacity="1" d="M 249.5 396 L 250.5 398 L 249.5 396 Z " /><path fill="rgb(159,144,144)" stroke="rgb(159,144,144)" stroke-width="1" opacity="1" d="M 345.5 396 L 346 400.5 L 345 400.5 L 345.5 396 Z " /><path fill="rgb(159,144,144)" stroke="rgb(159,144,144)" stroke-width="1" opacity="1" d="M 263.5 397 L 262.5 399 L 263.5 397 Z " /><path fill="rgb(159,144,144)" stroke="rgb(159,144,144)" stroke-width="1" opacity="1" d="M 242.5 398 L 243.5 400 L 242.5 398 Z " /><path fill="rgb(159,144,144)" stroke="rgb(159,144,144)" stroke-width="1" opacity="1" d="M 251.5 399 L 252.5 401 L 251.5 399 Z " /><path fill="rgb(159,144,144)" stroke="rgb(159,144,144)" stroke-width="1" opacity="1" d="M 211.5 400 L 207 405.5 L 218.5 418 L 206 405.5 L 211.5 400 Z " /><path fill="rgb(159,144,144)" stroke="rgb(159,144,144)" stroke-width="1" opacity="1" d="M 265.5 400 L 264.5 402 L 265.5 400 Z " /><path fill="rgb(159,144,144)" stroke="rgb(159,144,144)" stroke-width="1" opacity="1" d="M 205.5 401 L 202.5 405 L 205.5 401 Z " /><path fill="rgb(159,144,144)" stroke="rgb(159,144,144)" stroke-width="1" opacity="1" d="M 244.5 401 L 245.5 403 L 244.5 401 Z " /><path fill="rgb(159,144,144)" stroke="rgb(159,144,144)" stroke-width="1" opacity="1" d="M 253.5 402 L 254.5 404 L 253.5 402 Z " /><path fill="rgb(159,144,144)" stroke="rgb(159,144,144)" stroke-width="1" opacity="1" d="M 263.5 403 L 262.5 405 L 263.5 403 Z " /><path fill="rgb(159,144,144)" stroke="rgb(159,144,144)" stroke-width="1" opacity="1" d="M 309.5 403 L 310 406.5 L 309 406.5 L 309.5 403 Z " /><path fill="rgb(159,144,144)" stroke="rgb(159,144,144)" stroke-width="1" opacity="1" d="M 352.5 403 L 349.5 407 L 352.5 403 Z " /><path fill="rgb(159,144,144)" stroke="rgb(159,144,144)" stroke-width="1" opacity="1" d="M 246.5 404 L 247.5 406 L 246.5 404 Z " /><path fill="rgb(159,144,144)" stroke="rgb(159,144,144)" stroke-width="1" opacity="1" d="M 342.5 404 L 341.5 406 L 342.5 404 Z " /><path fill="rgb(159,144,144)" stroke="rgb(159,144,144)" stroke-width="1" opacity="1" d="M 255.5 405 L 257.5 406 L 259 405.5 L 256.5 407 L 255.5 405 Z " /><path fill="rgb(159,144,144)" stroke="rgb(159,144,144)" stroke-width="1" opacity="1" d="M 275.5 405 L 276 410.5 L 275 410.5 L 275.5 405 Z " /><path fill="rgb(159,144,144)" stroke="rgb(159,144,144)" stroke-width="1" opacity="1" d="M 433.5 405 L 434.5 407 L 433.5 405 Z " /><path fill="rgb(159,144,144)" stroke="rgb(159,144,144)" stroke-width="1" opacity="1" d="M 261.5 406 L 260.5 408 L 261.5 406 Z " /><path fill="rgb(159,144,144)" stroke="rgb(159,144,144)" stroke-width="1" opacity="1" d="M 248.5 407 L 249.5 409 L 248.5 407 Z " /><path fill="rgb(159,144,144)" stroke="rgb(159,144,144)" stroke-width="1" opacity="1" d="M 309.5 409 L 310 412.5 L 309 412.5 L 309.5 409 Z " /><path fill="rgb(159,144,144)" stroke="rgb(159,144,144)" stroke-width="1" opacity="1" d="M 332.5 410 L 333 423.5 L 332 423.5 L 332.5 410 Z " /><path fill="rgb(159,144,144)" stroke="rgb(159,144,144)" stroke-width="1" opacity="1" d="M 336.5 410 L 337.5 412 L 336.5 410 Z " /><path fill="rgb(159,144,144)" stroke="rgb(159,144,144)" stroke-width="1" opacity="1" d="M 258.5 411 L 259 424.5 L 261 426.5 L 258 424.5 L 258.5 411 Z " /><path fill="rgb(159,144,144)" stroke="rgb(159,144,144)" stroke-width="1" opacity="1" d="M 346.5 412 L 347.5 414 L 346.5 412 Z " /><path fill="rgb(159,144,144)" stroke="rgb(159,144,144)" stroke-width="1" opacity="1" d="M 445.5 413 L 446.5 415 L 445.5 413 Z " /><path fill="rgb(159,144,144)" stroke="rgb(159,144,144)" stroke-width="1" opacity="1" d="M 340.5 415 L 341.5 417 L 340.5 415 Z " /><path fill="rgb(159,144,144)" stroke="rgb(159,144,144)" stroke-width="1" opacity="1" d="M 350.5 417 L 351.5 419 L 350.5 417 Z " /><path fill="rgb(159,144,144)" stroke="rgb(159,144,144)" stroke-width="1" opacity="1" d="M 473.5 419 L 475 421.5 L 473 420.5 L 473.5 419 Z " /><path fill="rgb(159,144,144)" stroke="rgb(159,144,144)" stroke-width="1" opacity="1" d="M 495.5 419 L 496 420.5 L 494 421.5 L 495.5 419 Z " /><path fill="rgb(159,144,144)" stroke="rgb(159,144,144)" stroke-width="1" opacity="1" d="M 344.5 420 L 345.5 422 L 344.5 420 Z " /><path fill="rgb(159,144,144)" stroke="rgb(159,144,144)" stroke-width="1" opacity="1" d="M 306.5 421 L 303.5 425 L 306.5 421 Z " /><path fill="rgb(159,144,144)" stroke="rgb(159,144,144)" stroke-width="1" opacity="1" d="M 313.5 421 L 309.5 426 L 313.5 421 Z " /><path fill="rgb(159,144,144)" stroke="rgb(159,144,144)" stroke-width="1" opacity="1" d="M 223.5 422 L 225.5 425 L 223.5 422 Z " /><path fill="rgb(159,144,144)" stroke="rgb(159,144,144)" stroke-width="1" opacity="1" d="M 354.5 422 L 357.5 426 L 354.5 422 Z " /><path fill="rgb(159,144,144)" stroke="rgb(159,144,144)" stroke-width="1" opacity="1" d="M 467.5 422 L 471 426.5 L 467 423.5 L 467.5 422 Z " /><path fill="rgb(159,144,144)" stroke="rgb(159,144,144)" stroke-width="1" opacity="1" d="M 281.5 423 L 282.5 425 L 281.5 423 Z " /><path fill="rgb(159,144,144)" stroke="rgb(159,144,144)" stroke-width="1" opacity="1" d="M 475.5 423 L 476.5 425 L 475.5 423 Z " /><path fill="rgb(159,144,144)" stroke="rgb(159,144,144)" stroke-width="1" opacity="1" d="M 497.5 423 L 494.5 427 L 497.5 423 Z " /><path fill="rgb(159,144,144)" stroke="rgb(159,144,144)" stroke-width="1" opacity="1" d="M 191.5 425 L 190.5 427 L 191.5 425 Z " /><path fill="rgb(159,144,144)" stroke="rgb(159,144,144)" stroke-width="1" opacity="1" d="M 200.5 425 L 201.5 427 L 200.5 425 Z " /><path fill="rgb(159,144,144)" stroke="rgb(159,144,144)" stroke-width="1" opacity="1" d="M 250.5 425 L 249.5 427 L 250.5 425 Z " /><path fill="rgb(159,144,144)" stroke="rgb(159,144,144)" stroke-width="1" opacity="1" d="M 348.5 425 L 349.5 427 L 348.5 425 Z " /><path fill="rgb(159,144,144)" stroke="rgb(159,144,144)" stroke-width="1" opacity="1" d="M 371.5 425 L 370.5 427 L 371.5 425 Z " /><path fill="rgb(159,144,144)" stroke="rgb(159,144,144)" stroke-width="1" opacity="1" d="M 454.5 425 L 453.5 427 L 454.5 425 Z " /><path fill="rgb(159,144,144)" stroke="rgb(159,144,144)" stroke-width="1" opacity="1" d="M 482.5 426 L 488 426.5 L 482.5 427 L 482.5 426 Z " /><path fill="rgb(159,144,144)" stroke="rgb(159,144,144)" stroke-width="1" opacity="1" d="M 492.5 427 L 491.5 429 L 490 428.5 L 492.5 427 Z " /><path fill="rgb(159,144,144)" stroke="rgb(159,144,144)" stroke-width="1" opacity="1" d="M 299.5 429 L 302 429.5 L 299.5 430 L 299.5 429 Z " /><path fill="rgb(159,144,144)" stroke="rgb(159,144,144)" stroke-width="1" opacity="1" d="M 439.5 429 L 442 429.5 L 439.5 430 L 439.5 429 Z " /><path fill="rgb(227,0,18)" stroke="rgb(227,0,18)" stroke-width="1" opacity="1" d="M 439.5 117 L 512 117.5 L 395.5 236 L 322 235.5 L 439.5 117 Z " /><path fill="rgb(36,25,22)" stroke="rgb(36,25,22)" stroke-width="1" opacity="1" d="M 288.5 117 L 397 117.5 L 279 236.5 L 396 355.5 L 374.5 356 L 256 236.5 L 358 133.5 L 295.5 133 L 193 236.5 L 311 355.5 L 288.5 356 L 170 236.5 L 288.5 117 Z " /><path fill="rgb(36,25,22)" stroke="rgb(36,25,22)" stroke-width="1" opacity="1" d="M 322.5 237 L 334.5 237 L 336 238.5 L 451 355.5 L 438.5 356 L 322.5 237 Z " /><path fill="rgb(36,25,22)" stroke="rgb(36,25,22)" stroke-width="1" opacity="1" d="M 383.5 237 L 395.5 237 L 397 238.5 L 512 355.5 L 499.5 356 L 383.5 237 Z " /><path fill="rgb(36,25,22)" stroke="rgb(36,25,22)" stroke-width="1" opacity="1" d="M 295.5 386 Q 309 386.5 314 395.5 Q 318.4 401.1 318 411.5 Q 315.7 422.2 307.5 427 L 303.5 429 L 294.5 430 Q 283.7 428.3 279 420.5 Q 274.4 414.7 276 402.5 Q 278.5 394.5 284.5 390 L 295.5 386 Z M 294 389 L 292 390 Q 286 393 284 401 L 284 416 L 286 421 L 294 427 Q 301 428 304 425 L 307 422 L 310 413 L 310 404 L 306 394 Q 303 388 294 389 Z " /><path fill="rgb(36,25,22)" stroke="rgb(36,25,22)" stroke-width="1" opacity="1" d="M 441.5 386 L 451.5 389 L 453.5 386 L 455 387.5 L 455 399.5 L 453 400.5 Q 452.6 393.9 448.5 391 Q 446.2 388.3 440.5 389 L 436 392.5 L 435 395.5 L 439.5 401 L 455 411.5 Q 457.8 414.2 457 420.5 L 451.5 428 Q 448.6 430.6 442.5 430 L 432.5 428 L 430 429.5 L 430.5 415 L 433 421.5 L 437.5 426 L 446.5 427 L 451 420.5 L 445.5 413 L 432 405 Q 429 401.8 430 393.5 L 434.5 388 L 441.5 386 Z " /><path fill="rgb(36,25,22)" stroke="rgb(36,25,22)" stroke-width="1" opacity="1" d="M 186 387 L 205.5 387 L 206 389 Q 201.4 387.8 200 390.5 L 200.5 406 L 214 393.5 L 215 389 Q 209.8 390.7 211 387 L 226.5 387 L 227 389 Q 217.3 390.4 213 398.5 Q 213.8 400.8 211.5 400 L 206 405.5 L 225.5 425 Q 228.5 427.8 234 427 L 233.5 429 L 212 429 Q 210.9 425.7 215 427 L 215 424.5 L 200 410.5 L 200 425.5 L 201.5 427 Q 207.3 425.3 206 429 L 186.5 429 L 186 427 Q 190.6 428.3 192 425.5 L 193 423.5 L 193 392.5 L 190.5 389 Q 184.7 390.7 186 387 Z " /><path fill="rgb(36,25,22)" stroke="rgb(36,25,22)" stroke-width="1" opacity="1" d="M 232 387 L 250.5 387 L 251 389 L 246 389 L 246 390.5 L 256.5 407 L 259 405.5 L 267 392.5 L 267 389 Q 261.8 390.7 263 387 L 276.5 387 L 277 389 Q 272.1 388.9 270 392.5 L 258 411.5 L 258 424.5 Q 259.5 428.3 265 427 L 264.5 429 L 245 429 Q 243.7 425.3 249.5 427 L 251 425.5 L 251 410.5 L 240 393.5 L 235.5 389 Q 230.7 390.3 232 387 Z " /><path fill="rgb(36,25,22)" stroke="rgb(36,25,22)" stroke-width="1" opacity="1" d="M 320 387 L 343.5 387 Q 349.3 388.3 352 392.5 L 354 399.5 L 348.5 407 L 344 409.5 L 357.5 426 L 363 428.5 L 351.5 429 L 336.5 410 Q 332 409.5 332 410.5 L 332 423.5 L 334.5 427 Q 339.3 425.7 338 429 L 320.5 429 L 320 427 Q 323.8 428 325 425.5 L 326 423.5 L 326 393.5 L 323.5 389 Q 318.7 390.3 320 387 Z M 334 390 L 332 392 L 332 407 L 342 406 L 346 401 L 345 395 Q 343 389 334 390 Z " /><path fill="rgb(36,25,22)" stroke="rgb(36,25,22)" stroke-width="1" opacity="1" d="M 366 387 L 384.5 387 L 385 389 Q 380.3 388 379 391.5 L 379 424.5 L 381.5 427 Q 386.3 425.7 385 429 L 366.5 429 L 366 427 Q 370.6 428.3 372 425.5 L 372 391.5 L 369.5 389 Q 364.7 390.3 366 387 Z " /><path fill="rgb(36,25,22)" stroke="rgb(36,25,22)" stroke-width="1" opacity="1" d="M 389 387 L 424.5 387 L 425 389.5 L 426 390.5 L 426 397 Q 423 398.3 424 394.5 L 422 391 Q 418.6 389.3 411.5 390 L 410 391.5 L 410 423.5 L 412.5 427 Q 417.3 425.7 416 429 L 398.5 429 L 398 427 Q 401.8 428 403 425.5 L 404 423.5 L 404 391.5 Q 402.3 388.3 395.5 390 L 391 392 L 390 397 Q 387 398.3 388 394.5 L 389 393.5 L 389 387 Z " /><path fill="rgb(36,25,22)" stroke="rgb(36,25,22)" stroke-width="1" opacity="1" d="M 459 387 L 477.5 387 L 478 389 Q 474.2 388 473 390.5 L 473 420.5 L 476.5 425 L 482.5 427 L 487.5 427 L 494 424 L 497 417.5 L 497 392.5 L 494.5 389 Q 489.7 390.3 491 387 L 505.5 387 L 506 389 Q 501.3 388 500 391.5 L 500 417.5 Q 498.5 424 493.5 427 Q 489.1 431.1 479.5 430 Q 471.7 428.8 468 423.5 L 466 419.5 L 466 392.5 L 463.5 389 Q 457.6 390.7 459 387 Z " /></svg>